<?xml version="1.0" encoding="UTF-8" standalone="no"?>
<!-- Created with Inkscape (http://www.inkscape.org/) -->

<svg
   width="200mm"
   height="194mm"
   viewBox="0 0 200 194"
   version="1.1"
   id="svg5"
   inkscape:version="1.1 (c68e22c387, 2021-05-23)"
   sodipodi:docname="internet-mail-icon.svg"
   xmlns:inkscape="http://www.inkscape.org/namespaces/inkscape"
   xmlns:sodipodi="http://sodipodi.sourceforge.net/DTD/sodipodi-0.dtd"
   xmlns="http://www.w3.org/2000/svg"
   xmlns:svg="http://www.w3.org/2000/svg">
  <sodipodi:namedview
     id="namedview7"
     pagecolor="#ffffff"
     bordercolor="#666666"
     borderopacity="1.0"
     inkscape:pageshadow="2"
     inkscape:pageopacity="0.0"
     inkscape:pagecheckerboard="0"
     inkscape:document-units="mm"
     showgrid="false"
     inkscape:zoom="0.64"
     inkscape:cx="427.34375"
     inkscape:cy="441.40625"
     inkscape:window-width="1920"
     inkscape:window-height="1009"
     inkscape:window-x="-8"
     inkscape:window-y="-8"
     inkscape:window-maximized="1"
     inkscape:current-layer="layer1" />
  <defs
     id="defs2" />
  <g
     inkscape:label="Capa 1"
     inkscape:groupmode="layer"
     id="layer1">
    <g
       id="g97286"
       transform="translate(7.6809138,-13.968198)">
      <path
         id="rect846"
         style="fill:#808080;fill-opacity:1;fill-rule:evenodd;stroke-width:1.88976;stroke-linecap:round;stroke-linejoin:round;paint-order:markers stroke fill;stop-color:#000000"
         d="m 211.1543,61.984375 v 23.158203 h 23.1582 V 61.984375 Z m 23.1582,23.158203 v 23.158202 h 23.1582 23.16016 V 85.142578 H 257.4707 Z m 46.31836,23.158202 v 23.16016 h 23.1582 23.15821 v -23.16016 h -23.15821 z m 46.31641,23.16016 v 23.1582 h 23.1582 23.16015 v -23.1582 h -23.16015 z m 46.31835,23.1582 v 23.1582 h 23.15821 23.1582 v -23.1582 h -23.1582 z m 46.31641,23.1582 v 23.15821 h 23.16016 23.1582 v -23.15821 h -23.1582 z m 46.31836,23.15821 v 23.16015 h 23.1582 23.15821 v -23.16015 h -23.15821 z m 46.31641,23.16015 v 23.15821 h 23.16015 23.15821 V 224.0957 h -23.15821 z m 46.31836,23.15821 v 23.1582 h 23.1582 v -23.1582 z M 211.1543,85.142578 h -23.16016 v 23.158202 h 23.16016 z m -23.16016,23.158202 h -23.1582 v 23.16016 h 23.1582 z m -23.1582,23.16016 h -23.15821 v 23.1582 h 23.15821 z m -23.15821,23.1582 h -23.16015 v 23.1582 h 23.16015 z m -23.16015,23.1582 H 95.359375 v 23.15821 H 118.51758 Z M 95.359375,200.93555 H 72.201172 V 224.0957 H 95.359375 Z M 72.201172,224.0957 H 49.042969 v 23.15821 H 72.201172 Z M 49.042969,247.25391 H 25.882812 v 23.1582 h 23.160157 z m -23.160157,23.1582 H 2.7246094 v 23.16016 H 25.882812 Z"
         transform="scale(0.26458333)" />
      <path
         id="rect846-49"
         style="fill:#ffffff;fill-opacity:1;fill-rule:evenodd;stroke-width:1.88976;stroke-linecap:round;stroke-linejoin:round;paint-order:markers stroke fill;stop-color:#000000"
         d="m 211.1543,85.142578 v 23.158202 h 23.1582 V 85.142578 Z m 23.1582,23.158202 v 23.16016 h 23.1582 23.15821 v 23.1582 H 257.4707 234.3125 v -23.1582 h -23.1582 v -23.16016 h -23.16016 v 23.16016 h -23.1582 v 23.1582 h -23.15821 v 23.1582 h -23.16015 v 23.15821 H 95.359375 V 224.0957 H 72.201172 v 23.15821 H 49.042969 v 23.1582 H 25.882812 v 23.16016 h 23.160157 v 23.1582 h 23.158203 23.158203 v 23.1582 h 23.158205 23.16015 v 23.16016 h 23.15821 23.1582 v 23.1582 h 23.16016 23.1582 v 23.1582 h 23.1582 23.15821 v 23.15821 h 23.16015 23.15821 v 23.16015 h 23.1582 23.16015 v -23.16015 h 23.15821 v -23.15821 h 23.1582 v -23.1582 h 23.16016 v -23.1582 h 23.1582 v -23.16016 h 23.1582 v -23.1582 h -23.1582 -23.1582 v -23.1582 h -23.16016 v -23.16016 h 23.16016 v -23.1582 h 23.1582 V 224.0957 200.93555 h -23.1582 -23.16016 v -23.15821 h -23.1582 -23.15821 v -23.1582 h -23.16015 -23.1582 v 23.1582 h -23.15821 -23.1582 v -23.1582 h 23.1582 23.15821 v -23.1582 h -23.15821 -23.1582 V 108.30078 H 257.4707 Z m 254.74609,208.42969 h 23.15821 v -23.1582 h -23.15821 z m 23.15821,-23.1582 h 23.16015 V 270.41211 H 512.2168 Z m 23.16015,-23.16016 h 23.15821 v -23.1582 H 535.37695 Z M 187.99414,224.0957 h 23.16016 23.1582 v 23.15821 h 23.1582 23.15821 v 23.1582 H 257.4707 234.3125 v 23.16016 h 23.1582 23.15821 v 23.1582 H 257.4707 234.3125 v 23.1582 h 23.1582 v 23.16016 h -23.1582 v -23.16016 h -23.1582 -23.16016 v -23.1582 h -23.1582 -23.15821 v -23.1582 h 23.15821 23.1582 v -23.16016 h -23.1582 v -23.1582 h 23.1582 z m 0,23.15821 v 23.1582 h 23.16016 23.1582 v -23.1582 h -23.1582 z m 0,46.31836 v 23.1582 h 23.16016 23.1582 v -23.1582 H 211.1543 Z M 489.05859,224.0957 v 23.15821 H 512.2168 V 224.0957 Z m -208.42773,46.31641 h 23.1582 23.15821 v 23.16016 h 23.1582 v 23.1582 h -23.1582 v -23.1582 h -23.15821 -23.1582 z m 0,46.31836 h 23.1582 v 23.1582 h -23.1582 z m 254.74609,23.1582 v 23.16016 h 23.15821 v -23.16016 z m 23.15821,23.16016 v 23.1582 h 23.1582 v -23.1582 z m 0,23.1582 h -23.15821 v 23.1582 h 23.15821 z m 0,23.1582 v 23.15821 h 23.1582 v -23.15821 z m 23.1582,23.15821 v 23.16015 h 23.16016 v -23.16015 z m 23.16016,23.16015 v 23.15821 h 23.1582 v -23.15821 z m 23.1582,0 h 23.1582 v -23.16015 h -23.1582 z m 23.1582,-23.16015 h 23.16016 v -23.15821 h -23.16016 z m 0,-23.15821 v -23.1582 h -23.1582 v 23.1582 z m -23.1582,-23.1582 v -23.1582 h -23.1582 v 23.1582 z m -46.31836,69.47656 h -23.1582 v 23.15821 h 23.1582 z m -23.1582,0 v -23.16015 h -23.15821 v 23.16015 z M 535.37695,432.52344 V 409.36523 H 512.2168 v 23.15821 z M 512.2168,409.36523 v -23.1582 h -23.15821 v 23.1582 z m -23.15821,0 h -23.1582 v 23.15821 h 23.1582 z m 23.15821,-23.1582 h 23.16015 v -23.1582 H 512.2168 Z m -393.69922,46.31641 v 23.16015 H 95.359375 v 23.15821 h 23.158205 23.16015 V 502 h 23.15821 23.1582 v -23.1582 h -23.1582 v -23.15821 h -23.15821 v -23.16015 z m 46.31836,23.16015 h 23.1582 v -23.16015 h -23.1582 z m 23.1582,0 V 478.8418 H 211.1543 V 455.68359 Z M 211.1543,478.8418 V 502 h -23.16016 v 23.16016 h 23.16016 23.1582 v 23.1582 h 23.1582 V 525.16016 502 H 234.3125 V 478.8418 Z M 257.4707,502 h 23.16016 V 478.8418 H 257.4707 Z m 23.16016,0 v 23.16016 h 23.1582 V 502 Z m 138.95117,-46.31641 v 23.15821 h 23.16016 v -23.15821 z m 23.16016,23.15821 V 502 h 23.1582 V 478.8418 Z M 465.90039,502 v 23.16016 h 23.1582 V 502 Z m 23.1582,0 h 23.15821 v 23.16016 h 23.16015 V 502 h -23.1582 v -23.1582 h -23.16016 z m 46.31836,23.16016 v 23.1582 h 23.15821 v -23.1582 z m 0,23.1582 H 512.2168 v 23.1582 h 23.16015 z m -23.16015,23.1582 h -23.15821 v 23.15821 h 23.15821 z m -23.15821,23.15821 h -23.1582 v 23.16015 h 23.1582 z m -23.1582,0 v -23.15821 h -23.1582 v -23.1582 h -23.16016 v 23.1582 h 23.1582 v 23.15821 z m -23.16016,0 h -23.1582 v -23.15821 h -23.1582 v 23.15821 h -23.15821 v 23.16015 h 23.15821 23.1582 23.1582 z m -69.47461,0 v -23.15821 h -23.16015 v -23.1582 h -23.1582 -23.15821 -23.16015 v 23.1582 h 23.16015 23.15821 v 23.15821 h 23.1582 z m -23.16015,-46.31641 h 23.16015 v -23.1582 h -23.16015 z m 23.16015,-23.1582 h 23.15821 V 502 H 373.26562 Z M 396.42383,502 h 23.1582 v -23.1582 h -23.1582 z m 23.1582,0 v 23.16016 h 23.16016 V 502 Z m 23.16016,23.16016 v 23.1582 h 23.1582 v -23.1582 z m 23.1582,23.1582 v 23.1582 h 23.1582 v -23.1582 z m 23.1582,0 h 23.15821 v -23.1582 h -23.15821 z m -69.47656,-23.1582 h -23.1582 v 23.1582 h 23.1582 z m -23.1582,23.1582 h -23.15821 v 23.1582 h 23.15821 z"
         transform="scale(0.26458333)" />
      <path
         id="rect846-1-7-1"
         style="fill:#000000;fill-opacity:1;fill-rule:evenodd;stroke-width:0.499999;stroke-linecap:round;stroke-linejoin:round;paint-order:markers stroke fill;stop-color:#000000"
         d="m 153.90641,65.419481 v 6.127274 h 6.12779 v -6.127274 z m 0,6.127274 h -6.12728 v 6.127792 h 6.12728 z m -6.12728,6.127792 h -6.12727 v 6.127274 h 6.12727 z m -6.12727,6.127274 h -6.12779 v 6.127273 h 6.12779 z m -6.12779,6.127273 h -6.12728 v 6.127793 h 6.12728 z m -6.12728,6.127793 h -6.12727 v 6.127273 h 6.12727 z m -6.12727,6.127273 h -6.12728 v 6.12727 h 6.12728 z m -6.12728,6.12727 h -6.12779 v 6.12728 h 6.12779 z m -6.12779,6.12728 h -6.12727 v 6.12779 h 6.12727 z m -6.12727,6.12779 h -6.127278 v 6.12728 h 6.127278 z m -6.127278,6.12728 h -6.127789 -6.127274 v 6.12727 h 6.127274 6.127789 z m -12.255063,0 v -6.12728 h -6.127276 -6.12779 v 6.12728 h 6.12779 z M 74.249773,120.5665 v -6.12779 h -6.127276 -6.127274 v 6.12779 h 6.127274 z m -12.25455,-6.12779 v -6.12728 h -6.127274 -6.127792 v 6.12728 h 6.127792 z m -12.255066,-6.12728 v -6.12727 h -6.127274 -6.127276 v 6.12727 h 6.127276 z m -12.25455,-6.12727 v -6.127273 h -6.12779 -6.127274 v 6.127273 h 6.127274 z M 25.230543,96.056887 v -6.127793 h -6.127275 -6.127274 v 6.127793 h 6.127274 z M 12.975994,89.929094 V 83.801821 H 6.8482021 0.72092774 v 6.127273 H 6.8482021 Z M 0.72092774,83.801821 V 77.674547 H -5.4063468 v 6.127274 z M 184.54381,108.31143 v 6.12728 6.12779 6.12728 6.12727 6.12779 6.12728 h 6.12728 v -6.12728 -6.12779 -6.12727 -6.12728 -6.12779 -6.12728 z m 0,36.76469 h -6.12727 v 6.12727 h 6.12727 z m -6.12727,6.12727 h -6.12779 v 6.12728 h 6.12779 z m -6.12779,6.12728 h -6.12728 v -6.12728 -6.12727 -6.12728 -6.12779 h -6.12727 v 6.12779 6.12728 6.12727 6.12728 6.12779 6.12727 h 6.12727 v -6.12727 h 6.12728 z m -12.25455,12.25506 h -6.12779 v 6.12728 h 6.12779 z m -6.12779,6.12728 h -6.12728 v 6.12779 h 6.12728 z m -6.12728,6.12779 h -6.12727 v 6.12727 h 6.12727 z m -6.12727,6.12727 h -6.12728 v 6.12728 h 6.12728 z m -6.12728,6.12728 h -6.12779 v 6.12779 h 6.12779 z m -6.12779,6.12779 h -6.12727 -6.12728 v 6.12727 h 6.12728 6.12727 z m -12.25455,0 v -6.12779 h -6.12779 -6.12727 v 6.12779 h 6.12727 z m -12.25506,-6.12779 v -6.12728 h -6.127278 -6.127789 v 6.12728 h 6.127789 z m -12.255067,-6.12728 v -6.12727 h -6.127274 -6.127276 v 6.12727 h 6.127276 z m -12.25455,-6.12727 v -6.12779 h -6.127274 -5.29e-4 v -6.12728 -6.12727 -6.12779 -6.12728 -6.12727 h -6.127263 v 6.12727 6.12728 6.12779 6.12727 h -6.127274 -6.127274 v 6.12728 h 6.127274 6.127274 v 6.12779 h 6.127792 z M 55.867949,169.58573 v -6.12727 h -6.127792 -6.127274 v 6.12727 h 6.127274 z m -12.255066,-6.12727 v -6.12779 h -6.127276 -6.12779 v 6.12779 h 6.12779 z m -12.255066,-6.12779 v -6.12728 h -6.127274 -6.127275 v 6.12728 h 6.127275 z" />
      <path
         id="rect846-49-5"
         style="fill:#0000ff;fill-opacity:1;fill-rule:evenodd;stroke-width:1.88976;stroke-linecap:round;stroke-linejoin:round;paint-order:markers stroke fill;stop-color:#000000"
         d="m 211.1543,108.30078 v 23.16016 h 23.1582 v -23.16016 z m 23.1582,23.16016 v 23.1582 h 23.1582 23.15821 v 23.1582 h 23.16015 23.15821 v -23.1582 h -23.15821 -23.1582 v -23.1582 H 257.4707 Z m -46.31836,92.63476 v 23.15821 h 23.16016 23.1582 V 224.0957 h -23.1582 z m 46.31836,23.15821 v 23.1582 h 23.1582 23.15821 v 23.16016 H 257.4707 234.3125 v 23.1582 h 23.1582 23.15821 v 23.1582 h 23.16015 v -23.1582 h -23.1582 v -23.1582 h 23.1582 23.15821 v -23.16016 h -23.15821 -23.1582 v -23.1582 H 257.4707 Z m 92.63477,46.31836 v 23.1582 h 23.1582 v -23.1582 z m -92.63477,23.1582 h -23.1582 -23.16016 v 23.1582 h 23.16016 23.1582 z m 0,23.1582 v 23.16016 h 23.1582 v -23.16016 z m -46.31836,-23.1582 v -23.1582 h -23.1582 -23.15821 v 23.1582 h 23.15821 z m 0,-23.1582 h 23.16016 23.1582 v -23.16016 h -23.1582 -23.16016 z m 0,-23.16016 v -23.1582 h -23.1582 v 23.1582 z"
         transform="scale(0.26458333)" />
      <path
         id="rect846-9-4-5-5"
         style="fill:#c0c0c0;fill-opacity:1;fill-rule:evenodd;stroke-width:0.499999;stroke-linecap:round;stroke-linejoin:round;paint-order:markers stroke fill;stop-color:#000000"
         d="m 123.26936,59.292013 v 6.127276 h 6.12727 v -6.127276 z m 12.25455,6.127276 v 6.127274 h 6.12779 v -6.127274 z m 6.12779,6.127274 v 6.127792 h 6.12727 v -6.127792 z m 0,6.127792 h -6.12779 v 6.127274 h 6.12779 z m -6.12779,6.127274 h -6.12728 v 6.127274 h 6.12728 z m -6.12728,6.127274 h -6.12727 v 6.127792 h 6.12727 z m -6.12727,6.127792 h -6.12728 v 6.127275 h 6.12728 z m -6.12728,6.127275 h -6.12779 v 6.12727 h 6.12779 z m -6.12779,6.12727 h -6.12727 v 6.12728 h 6.12727 z m -6.12727,6.12728 h -6.127277 v 6.12779 h 6.127277 z m -6.127277,6.12779 H 92.631954 86.50468 v 6.12727 h 6.127274 6.127789 z m -12.255063,0 v -6.12779 H 80.377404 74.25013 v -6.12728 h -6.127792 -6.127274 v 6.12728 h 6.127274 6.127276 v 6.12779 h 6.12779 z M 61.995064,108.31124 v -6.12727 H 55.86779 49.739998 v 6.12727 h 6.127792 z m -12.255066,-6.12727 v -6.127275 h -6.127273 -6.127277 v 6.127275 h 6.127277 z m -12.25455,-6.127275 v -6.127792 h -6.127789 -6.127275 v 6.127792 h 6.127275 z M 25.230384,89.928903 v -6.127274 h -6.127275 -6.127274 v 6.127274 h 6.127274 z M 12.975835,83.801629 V 77.674355 H 6.8480431 0.72076871 v 6.127274 H 6.8480431 Z M 160.03404,102.18397 v 6.12727 h 6.12727 v -6.12727 z m 0,6.12727 h -6.12779 v 6.12728 h 6.12779 z m -122.548592,0 v 6.12728 h 6.127277 v -6.12728 z m 12.25455,6.12728 v 6.12779 h 6.127792 v -6.12779 z m 67.402082,0 v 6.12779 h 6.12728 v -6.12779 z m 6.12728,6.12779 v 6.12727 h 6.12727 6.12728 v -6.12727 h -6.12728 z m 12.25455,6.12727 v 6.12728 h 6.12779 6.12727 v -6.12728 h -6.12727 z m 12.25506,6.12728 v 6.12779 h 6.12728 6.12779 v -6.12779 h -6.12779 z M 61.995064,120.56631 v 6.12727 h 6.127274 v -6.12727 z m -36.76468,6.12727 v 6.12728 h 6.127275 v 6.12779 h 6.127789 v -6.12779 h -6.127273 v -6.12728 z m 12.255064,12.25507 v 6.12727 h 6.127277 v -6.12727 z m 6.127277,0 h 6.127273 v -6.12779 h -6.127273 z m 6.127273,0 v 6.12727 h 6.127792 v -6.12727 z m 6.127792,6.12727 v 6.12727 h 6.127274 v -6.12727 z m 6.127274,6.12727 v 6.12728 h 6.127274 v -6.12728 z m 0,6.12728 H 55.86779 v 6.12779 h 6.127274 z m 0,6.12779 v 6.12727 h 6.127274 v -6.12727 z m -6.127274,-6.12779 v -6.12728 h -6.127792 v 6.12728 z m -6.127792,0 h -6.127273 v 6.12779 h 6.127273 z m -6.127273,0 v -6.12728 h -6.127277 v 6.12728 z m -6.127277,-6.12728 v -6.12727 h -6.127789 v 6.12727 z m -6.127789,-6.12727 v -6.12727 h -6.127275 v 6.12727 z m 12.255066,6.12727 h 6.127273 v -6.12727 H 43.612725 Z M 74.25013,126.69358 v 6.12728 h 6.127274 v -6.12728 z m 12.25455,6.12728 v 6.12779 h 6.127274 v -6.12779 z m 0,6.12779 h -6.127276 v 6.12727 h 6.127276 z m -12.255066,12.25454 v 6.12728 h 6.12779 v -6.12728 z m 6.12779,6.12728 v 6.12779 h 6.127276 v -6.12779 z m 6.127276,6.12779 v 6.12727 h 6.127274 v -6.12727 z m 6.127274,0 h 6.127789 v -6.12779 h -6.127789 z m 6.127789,0 v 6.12727 h 6.127277 v -6.12727 z m 6.127277,6.12727 v 6.12728 h 6.12727 v -6.12728 z m 6.12727,6.12728 v 6.12779 h 6.12779 v -6.12779 z m 6.12779,0 h 6.12728 v -6.12728 h -6.12728 z m 0,6.12779 v 6.12728 h 6.12728 v -6.12728 z m 0,6.12728 h -6.12779 v 6.12727 h 6.12779 z m 0,6.12727 v 6.12779 h 6.12728 v -6.12779 z m -6.12779,-6.12727 v -6.12728 h -6.12727 v 6.12728 z m -6.12727,-6.12728 v -6.12779 h -6.127277 v 6.12779 z m -6.127277,0 h -6.127789 v 6.12728 h 6.127789 z m -6.127789,0 v -6.12779 H 86.50468 v 6.12779 z m -6.127274,-6.12779 v -6.12728 h -6.127276 v 6.12728 z m -6.127276,-6.12728 v -6.12727 h -6.12779 v 6.12727 z m 12.25455,6.12728 h 6.127789 v -6.12728 h -6.127789 z" />
      <path
         id="rect846-1-7-48-7-2-6"
         style="fill:#808000;fill-opacity:1;fill-rule:evenodd;stroke-width:1.88976;stroke-linecap:round;stroke-linejoin:round;paint-order:markers stroke fill;stop-color:#000000"
         d="m 535.37695,316.73047 v 23.1582 h 23.15821 23.1582 v -23.1582 h -23.1582 z m 46.31641,23.1582 v 23.16016 h 23.16016 23.1582 v -23.16016 h -23.1582 z m 46.31836,23.16016 v 23.1582 h 23.1582 23.16016 v -23.1582 h -23.16016 z m 46.31836,23.1582 v 23.1582 h 23.1582 v -23.1582 z M 535.37695,339.88867 H 512.2168 v 23.16016 h 23.16015 z m -23.16015,23.16016 h -23.15821 v 23.1582 h 23.15821 z m -23.15821,23.1582 h -23.1582 v 23.1582 h 23.1582 z m -23.1582,23.1582 h -23.1582 v 23.15821 h 23.1582 z m 0,23.15821 v 23.16015 h 23.1582 23.15821 v -23.16015 h -23.15821 z m 46.31641,23.16015 v 23.15821 h 23.16015 23.15821 v -23.15821 h -23.15821 z m 46.31836,23.15821 V 502 h 23.1582 23.16016 V 478.8418 H 581.69336 Z M 442.74219,432.52344 h -23.16016 v 23.16015 h 23.16016 z m -23.16016,23.16015 h -23.1582 v 23.15821 h 23.1582 z m -23.1582,23.15821 H 373.26562 V 502 h 23.15821 z M 373.26562,502 h -23.16015 v 23.16016 h 23.16015 z M 118.51758,409.36523 v 23.15821 h 23.16015 v -23.15821 z m 0,23.15821 H 95.359375 v 23.16015 H 118.51758 Z M 95.359375,455.68359 H 72.201172 V 478.8418 502 v 23.16016 23.1582 23.1582 h 23.158203 23.158205 v -23.1582 H 95.359375 v -23.1582 h 23.158205 v 23.1582 h 23.16015 v -23.1582 h -23.1582 V 502 h 23.1582 V 478.8418 H 118.51758 V 502 H 95.359375 V 478.8418 Z M 141.67773,502 v 23.16016 h 23.15821 V 502 Z m 23.15821,23.16016 v 23.1582 h 23.1582 v -23.1582 z m 23.1582,23.1582 v 23.1582 h 23.16016 v -23.1582 z m 23.16016,0 h 23.1582 v -23.1582 h -23.1582 z m 23.1582,0 v 23.1582 h 23.1582 v -23.1582 z m 0,23.1582 h -23.1582 v 23.15821 h 23.1582 z m 0,23.15821 v 23.16015 h 23.1582 v -23.16015 z m 0,23.16015 h -23.1582 v 23.1582 h 23.1582 z m -23.1582,0 v -23.16015 h -23.16016 v 23.16015 z m -23.16016,-23.16015 v -23.15821 h -23.1582 v 23.15821 z m -23.1582,-23.15821 v -23.1582 h -23.15821 v 23.1582 z m -23.15821,0 h -23.16015 v 23.15821 h 23.16015 z m 23.15821,-162.11133 v 23.15821 h 23.1582 v -23.15821 z m 46.31836,23.15821 v 23.16015 h 23.1582 v -23.16015 z m 463.17578,0 v 23.16015 h -23.16016 v 23.15821 h -23.1582 V 502 v 23.16016 23.1582 23.1582 23.15821 h 23.1582 v -23.15821 h 23.16016 v -23.1582 h 23.1582 V 525.16016 502 478.8418 455.68359 432.52344 Z M 257.4707,455.68359 v 23.15821 h 23.16016 v -23.15821 z m 46.31836,23.15821 V 502 525.16016 h 23.15821 V 502 478.8418 Z m 0,46.31836 h -23.16015 v 23.1582 h 23.16015 z m 277.9043,0 v 23.1582 h -23.1582 v 23.1582 h -23.15821 v 23.15821 H 512.2168 v 23.16015 h -23.15821 v 23.1582 h -23.1582 v 23.15821 h -23.1582 v 23.16015 h 23.1582 v 23.15821 h -23.1582 v 23.1582 h 23.1582 v 23.16016 h 23.1582 v -23.16016 h 23.16016 v -23.1582 h 23.1582 v -23.15821 h 23.15821 v -23.16015 h 23.1582 v -23.15821 h 23.16016 v -23.1582 -23.16015 -23.15821 -23.1582 -23.1582 z M 442.74219,710.42969 v -23.15821 h -23.16016 v 23.15821 z m -23.16016,0 h -23.1582 v 23.1582 h 23.1582 z m -23.1582,0 v -23.15821 h -23.15821 v 23.15821 z m -23.15821,-23.15821 v -23.16015 h -23.16015 v 23.16015 z m -23.16015,-23.16015 v -23.15821 h -23.1582 v 23.15821 z m -23.1582,0 h -23.15821 v 23.16015 h 23.15821 z m -23.15821,0 v -23.15821 h -23.16015 v 23.15821 z m 0,-23.15821 h 23.15821 v -23.1582 h -23.15821 z m 0,-23.1582 v -23.16015 h -23.16015 v 23.16015 z m 0,-23.16015 h 23.15821 v -23.15821 h -23.15821 z m 23.15821,0 v 23.16015 h 23.1582 v -23.16015 z m 23.1582,23.16015 v 23.1582 h 23.16015 v -23.1582 z m 23.16015,23.1582 v 23.15821 h 23.15821 v -23.15821 z m 23.15821,0 h 23.1582 v -23.1582 h -23.1582 z m 23.1582,0 v 23.15821 h 23.1582 v -23.15821 z m 0,23.15821 h -23.1582 v 23.16015 h 23.1582 z m 92.63477,0 h 0.002 v 23.16015 h -0.002 z"
         transform="scale(0.26458333)" />
      <path
         id="rect846-4-73-3-3-6"
         style="fill:#800000;fill-opacity:1;fill-rule:evenodd;stroke-width:1.88976;stroke-linecap:round;stroke-linejoin:round;paint-order:markers stroke fill;stop-color:#000000"
         d="m 442.74219,247.25391 v 23.1582 h 23.1582 23.1582 v -23.1582 h -23.1582 z m 46.3164,23.1582 v 23.16016 h 23.15821 v -23.16016 z m 0,23.16016 h -23.1582 -23.1582 v 23.1582 h 23.1582 23.1582 z m -46.3164,0 v -23.16016 h -23.16016 v 23.16016 z m 115.79297,92.63476 v 23.1582 h 23.1582 23.16016 v -23.1582 h -23.16016 z m 46.31836,23.1582 v 23.15821 h 23.1582 23.1582 v -23.15821 h -23.1582 z"
         transform="scale(0.26458333)" />
      <path
         id="rect846-4-7-4-7-8"
         style="fill:#ff0000;fill-opacity:1;fill-rule:evenodd;stroke-width:1.88976;stroke-linecap:round;stroke-linejoin:round;paint-order:markers stroke fill;stop-color:#000000"
         d="m 489.05859,247.25391 v 23.1582 h 23.15821 v -23.1582 z m 0,23.1582 h -23.1582 -23.1582 v 23.16016 h 23.1582 23.1582 z"
         transform="scale(0.26458333)" />
      <path
         id="rect846-9-4-1-41-1"
         style="fill:#ffff00;fill-opacity:1;fill-rule:evenodd;stroke-width:1.88976;stroke-linecap:round;stroke-linejoin:round;paint-order:markers stroke fill;stop-color:#000000"
         d="m 558.53516,339.88867 v 23.16016 h 23.1582 v -23.16016 z m 23.1582,23.16016 v 23.1582 h 23.16016 v -23.1582 z m -23.1582,0 h -23.15821 v 23.1582 h 23.15821 z m -23.15821,23.1582 H 512.2168 v 23.1582 h 23.16015 z m 0,23.1582 v 23.15821 h 23.15821 v -23.15821 z m 23.15821,23.15821 v 23.16015 h 23.1582 v -23.16015 z m 23.1582,23.16015 v 23.15821 h 23.16016 v -23.15821 z m 23.16016,0 h 23.1582 v -23.16015 h -23.1582 z m 23.1582,0 v 23.15821 h 23.1582 v -23.15821 z m 23.1582,0 h 23.16016 v -23.16015 h -23.16016 z m 23.16016,-23.16015 h 23.1582 v -23.15821 h -23.1582 z m 0,-23.15821 v -23.1582 h -23.16016 v 23.1582 z m -46.31836,69.47657 h -23.1582 V 502 h 23.1582 z M 535.37695,432.52344 H 512.2168 v 23.16015 h 23.16015 z m -23.16015,0 v -23.15821 h -23.15821 v 23.15821 z m -370.53907,0.002 v 23.1582 h 23.15821 v -23.1582 z m 23.15821,23.1582 v 23.16016 h 23.16015 v -23.16016 z m 23.16015,23.16016 v 23.1582 h 23.15821 v -23.1582 z m 23.15821,0 h 23.1582 v -23.16016 h -23.1582 z m 23.1582,0 v 23.1582 h 23.1582 v -23.1582 z m 23.1582,23.1582 v 23.15821 23.16015 h 23.16016 V 525.16021 502.002 Z m 185.27149,-46.31836 v 23.15821 h 23.1582 v -23.15821 z m 23.1582,23.15821 V 502 h 23.1582 V 478.8418 Z M 489.05859,502 v 23.16016 H 512.2168 V 502 Z m 23.15821,23.16016 v 23.1582 h 23.16015 v -23.1582 z m 23.16015,0 h 23.15821 V 502 h -23.15821 z m 23.15821,0 v 23.1582 h 23.1582 v -23.1582 z m 0,23.1582 h -23.15821 v 23.1582 h 23.15821 z m -23.15821,23.1582 H 512.2168 v 23.15821 h 23.16015 z m -23.16015,23.15821 h -23.15821 v 23.16015 h 23.15821 z m -23.15821,23.16015 h -23.1582 v 23.1582 h 23.1582 z m -23.1582,0 v -23.16015 h -23.16016 v 23.16015 z m -23.16016,-23.16015 v -23.15821 h -23.1582 v 23.15821 z m -23.1582,-23.15821 v -23.1582 h -23.1582 v 23.1582 z m -23.1582,0 h -23.15821 v 23.15821 h 23.15821 z m -23.15821,0 v -23.1582 h -23.16015 v 23.1582 z m -23.16015,-23.1582 v -23.1582 h -23.1582 v 23.1582 z m 23.16015,0 h 23.15821 v -23.1582 h -23.15821 z m 23.15821,-23.1582 h 23.1582 V 502 h -23.1582 z M 419.58203,502 h 23.16016 v -23.1582 h -23.16016 z m 23.16016,0 v 23.16016 h 23.1582 V 502 Z m 23.1582,23.16016 v 23.1582 h 23.1582 v -23.1582 z m 23.1582,23.1582 v 23.1582 h 23.15821 v -23.1582 z m 0,23.1582 h -23.1582 v 23.15821 h 23.1582 z m -23.1582,0 v -23.1582 h -23.1582 v -23.1582 h -23.16016 v 23.1582 h 23.1582 v 23.1582 z"
         transform="scale(0.26458333)" />
      <rect
         style="fill:#ffffff;fill-opacity:1;fill-rule:evenodd;stroke-width:0.499999;stroke-linecap:round;stroke-linejoin:round;paint-order:markers stroke fill;stop-color:#000000"
         id="rect846-9-7-0-8-1-3-9-2-1-8-0-5-2-6-9-6-0-5"
         width="6.1274271"
         height="6.1274271"
         x="111.01448"
         y="163.45813" />
      <rect
         style="fill:#ffffff;fill-opacity:1;fill-rule:evenodd;stroke-width:0.499999;stroke-linecap:round;stroke-linejoin:round;paint-order:markers stroke fill;stop-color:#000000"
         id="rect846-4-73-3-3-6-0-8-8-0-4-4-6-2-64-7-7-9-6"
         width="6.1274271"
         height="6.1274271"
         x="117.14194"
         y="163.45813" />
    </g>
  </g>
</svg>
